<svg width="80" height="32" viewBox="0 0 80 32" fill="none" xmlns="http://www.w3.org/2000/svg">
<path d="M20.9018 14.5779V25.3878H25.6328V15.0418C25.6328 12.5171 27.1997 10.9886 29.4739 10.9886C30.5046 10.9886 31.3907 11.2015 32.1018 11.5209V6.96958C31.307 6.65779 30.4703 6.47148 28.9377 6.47148C24.066 6.47148 20.9018 9.74144 20.9018 14.5779Z" fill="#E3E32B"/>
<path d="M36.9545 0C35.3534 0 34.0756 0.958175 34.0756 2.45247V2.70342C34.0756 4.1597 35.3573 5.12167 36.9545 5.12167C38.5518 5.12167 39.7992 4.1597 39.7992 2.70342V2.45247C39.7992 0.958175 38.5556 0 36.9545 0Z" fill="#E3E32B"/>
<path d="M39.301 6.96958H34.57V25.3878H39.301V6.96958Z" fill="#E3E32B"/>
<path d="M9.32154 6.4943C4.1722 6.4943 0.000251036 10.616 0.000251036 16.2205C0.000251036 16.2548 0.000251036 16.2928 0.000251036 16.327C-0.00735507 16.4183 0.159979 28.1977 0.217025 32H4.65139V24.7795C4.65139 24.4677 5.01268 24.289 5.26368 24.4791C7.42762 26.1369 10.3712 26.4791 12.9116 25.5856C15.2923 24.5057 17.1748 22.3802 18.0686 19.7376C18.0724 19.7338 18.0724 19.73 18.0724 19.73C19.9016 12.7262 15.4673 6.4943 9.31773 6.4943H9.32154ZM9.31013 21.6768C6.73926 21.6768 4.65519 19.4068 4.65519 16.6084C4.65519 13.8099 6.73926 11.5399 9.31013 11.5399C11.881 11.5399 13.9689 13.8099 13.9689 16.6084C13.9689 19.4068 11.881 21.6768 9.31013 21.6768Z" fill="#E3E32B"/>
<path d="M54.5284 6.96958L50.4021 19.3042L46.3481 6.96958H41.1911L47.9492 25.384H52.5737L59.6131 6.96958H54.5284Z" fill="#E3E32B"/>
<path d="M74.1788 6.96958L69.8053 18.9506L65.6448 6.96958H60.4878L67.4246 24.8517L64.2605 31.9962H69.3071L79.1951 6.96958H74.1788Z" fill="#E3E32B"/>
</svg>
