<svg width="16" height="16" viewBox="0 0 16 16" fill="none" xmlns="http://www.w3.org/2000/svg">
<g clip-path="url(#clip0_3088_110030)">
<circle cx="8" cy="8" r="8" fill="#052B37"/>
<path d="M4.74779 7.71386V9.65212H5.59607V7.79704C5.59607 7.34434 5.87702 7.07028 6.2848 7.07028C6.46959 7.07028 6.62848 7.10845 6.75599 7.16572V6.34965C6.61347 6.29375 6.46345 6.26034 6.18865 6.26034C5.31513 6.26034 4.74779 6.84666 4.74779 7.71386Z" fill="#E3E32B"/>
<path d="M7.6261 5.09998C7.33902 5.09998 7.1099 5.27178 7.1099 5.53971V5.58471C7.1099 5.84583 7.3397 6.01831 7.6261 6.01831C7.9125 6.01831 8.13616 5.84583 8.13616 5.58471V5.53971C8.13616 5.27178 7.91318 5.09998 7.6261 5.09998Z" fill="#E3E32B"/>
<path d="M8.04683 6.34965H7.19855V9.65212H8.04683V6.34965Z" fill="#E3E32B"/>
<path d="M2.67139 6.26443C1.74809 6.26443 1.00005 7.00346 1.00005 8.00838C1.00005 8.01452 1.00005 8.02134 1.00005 8.02747C0.998681 8.04384 1.02868 10.1559 1.03891 10.8377H1.83401V9.54304C1.83401 9.48713 1.89879 9.45509 1.9438 9.48918C2.3318 9.78643 2.8596 9.84778 3.31511 9.68757C3.74198 9.49395 4.07952 9.11284 4.23977 8.63902L4.24045 8.63765C4.56845 7.38184 3.77403 6.26443 2.67139 6.26443ZM2.66934 8.98672C2.20838 8.98672 1.83469 8.5797 1.83469 8.07792C1.83469 7.57614 2.20838 7.16913 2.66934 7.16913C3.13031 7.16913 3.50468 7.57614 3.50468 8.07792C3.50468 8.5797 3.13031 8.98672 2.66934 8.98672Z" fill="#E3E32B"/>
<path d="M10.7772 6.34965L10.0373 8.56129L9.3104 6.34965H8.38574L9.59748 9.65144H10.4267L11.6889 6.34965H10.7772Z" fill="#E3E32B"/>
<path d="M14.3006 6.34965L13.5164 8.49789L12.7704 6.34965H11.8457L13.0895 9.55599L12.5222 10.837H13.4271L15.2 6.34965H14.3006Z" fill="#E3E32B"/>
</g>
<defs>
<clipPath id="clip0_3088_110030">
<rect width="16" height="16" fill="white"/>
</clipPath>
</defs>
</svg>
