<svg xmlns="http://www.w3.org/2000/svg" viewBox="0 0 1246 669.78"><defs><style>.cls-1{fill:#222;}</style></defs><g id="Layer_2" data-name="Layer 2"><g id="Layer_1-2" data-name="Layer 1"><g id="privy"><g id="Page-1"><g id="Home-Page-4"><g id="SECTION:-Hero"><g id="Nav"><g id="Privy-Logo"><path id="Fill-1" class="cls-1" d="M46.68,238.54C32.92,183.48,122.2,119.65,186,109.9c59.57-9,73.7,21.93,51.29,54.7s-58.47,46.53-84.54,55.66c2.68-43.73,5.72-65-31.18-57.74C81.76,170.44,72,181.65,72,181.65c23.51,52.62,3,142.88,5,207.08,1.1,15.71,1.1,41.29,22.42,41.29,24.24,0,82.1-18.27,82.1-18.27-35.94-34.11-34.11-73.69-31.19-164.81,25.22,26.43,86.61-3.65,102.08-15.1,14.86,31.79,10.84,97.44,7.31,135.82-3.17,34.71,3.65,68.7,78.2,50.43-15.71-14.62-17.05-65.66-10.84-112.19s25.58-110.85,83.69-116.7c9-1,16.68-.85,22.77-3.29,10.48-4,16.94-12.3,19.86-26.67,4.26-20.47-9.26-45.81-35.45-45.81-36,0-73.21,25.46-94.77,145,1-11.57-.73-24.12-.48-31.31.61-16-10.11-22.29-22.9-21-14.38,1.59-21.32,3.9-21.32,3.9,19.61-15.47,47-50.43,52.62-104.15C337.57,45.1,310.65-8,233.3,1,155.58,10.14,89.8,58,49.73,96.38c-57,55.3-73.82,139.35-3,142.16"/><path id="Fill-2" class="cls-1" d="M375,224.4c19.49,65.17-3,125.11,1.83,172.86,3,29.47,17,26.18,37.52,25.45,14.62-.48,31.91-4.62,48.84-10-39.22-55.31-25.7-94.77-15.83-146.54,3.9-20.71,9.26-55.31-17.05-55.31-27.9,0-55.18,13.52-55.31,13.52"/><path id="Fill-3" class="cls-1" d="M547,199c-13.28-9.63-53.47,4-68.46,30.45-7.18,14.25-11.57,55.79-10.72,97.33,1,44.82,15.23,95.74,45.56,102.2,23.15,4.87,61.15-14.86,87.46-99.16,15.59-49.82,21-126.8,19.86-134.11,30.21.24,55.06-5.85,70.4-16.08,13.77-9.38,24.12-18.88,24.12-37.15,0-15.6-12.79-30.21-31.79-30.7-25.09,18-43.12,26.55-65.66,32-8-57.5-28.5-62.62-48.23-49.83s-23.15,68.71,15,93.68c7.55,74.79-17.42,159.33-39,163C525.4,353.77,521,260.1,547,199"/><path id="Fill-4" class="cls-1" d="M696.67,322.1c2.19,12.3,9,23,16.44,23.14,11.7.25,20.1-16.08,24.61-25.58,0-13.64.36-70.65-8.65-98.06,10.84-3.65,36.91-9.74,46.77-9.74,12.55,0,32.16-.49,30.34,20.95-2.81,32.65-9.38,131.19-15.72,200.62,66.51,20.22,124.74,66.15,242.65,25.34,15.47,42.63-4,88.31-50.79,92-58.72,4.63-120.11-44.22-201.48-75.28C758.79,527,715.55,554.51,677.79,557.8c-44.34,3.78-74.67-23.38-74.67-57.74,0-68.21,64.8-84.78,134.23-79.17,0,0,.61-33.74,0-58.35-12.54,31.91-29.23,53.72-68.09,42.27-41.42-12.18-53.11-83.32-35.33-179.67,2.44-8.17,18-20.71,70.78-12.19-1.71,7.92-15.47,68-8,109.15Zm35.32,139c-36.91-6-68.33,1-68.33,32.41,0,25.33,25.33,44.7,45.43,20.1S732,462.91,732,461.08Z"/></g></g></g></g></g></g></g></g></svg>